<svg xmlns="http://www.w3.org/2000/svg" width="18" height="18" viewBox="0 0 18 18"><defs><style>.a{fill:#fff}</style></defs><title>S Copy 18 N</title><rect id="Canvas" width="18" height="18" fill="#ff13dc" opacity="0"/><rect width="1" height="1" x="16" y="11" class="a" rx=".25"/><rect width="1" height="1" x="16" y="9" class="a" rx=".25"/><rect width="1" height="1" x="16" y="7" class="a" rx=".25"/><rect width="1" height="1" x="16" y="5" class="a" rx=".25"/><rect width="1" height="1" x="16" y="3" class="a" rx=".25"/><rect width="1" height="1" x="16" y="1" class="a" rx=".25"/><rect width="1" height="1" x="14" y="1" class="a" rx=".25"/><rect width="1" height="1" x="12" y="1" class="a" rx=".25"/><rect width="1" height="1" x="10" y="1" class="a" rx=".25"/><rect width="1" height="1" x="8" y="1" class="a" rx=".25"/><rect width="1" height="1" x="6" y="1" class="a" rx=".25"/><rect width="1" height="1" x="6" y="3" class="a" rx=".25"/><rect width="1" height="1" x="6" y="5" class="a" rx=".25"/><rect width="1" height="1" x="6" y="7" class="a" rx=".25"/><rect width="1" height="1" x="6" y="9" class="a" rx=".25"/><rect width="1" height="1" x="6" y="11" class="a" rx=".25"/><rect width="1" height="1" x="8" y="11" class="a" rx=".25"/><rect width="1" height="1" x="10" y="11" class="a" rx=".25"/><rect width="1" height="1" x="12" y="11" class="a" rx=".25"/><rect width="1" height="1" x="14" y="11" class="a" rx=".25"/><path d="M5,6H1.5a.5.5,0,0,0-.5.5v10a.5.5,0,0,0,.5.5h10a.5.5,0,0,0,.5-.5V13H5.5a.5.5,0,0,1-.5-.5Z" class="a"/></svg>