<svg xmlns="http://www.w3.org/2000/svg" id="a" viewBox="0 0 18 18"><defs><style>.c{fill:transparent}.d{fill:#fff}</style></defs><rect id="b" width="18" height="18" class="c"/><rect width="1" height="1" x="16" y="11" class="d" rx=".25" ry=".25"/><rect width="1" height="1" x="16" y="9" class="d" rx=".25" ry=".25"/><rect width="1" height="1" x="16" y="7" class="d" rx=".25" ry=".25"/><rect width="1" height="1" x="16" y="5" class="d" rx=".25" ry=".25"/><rect width="1" height="1" x="16" y="3" class="d" rx=".25" ry=".25"/><rect width="1" height="1" x="16" y="1" class="d" rx=".25" ry=".25"/><rect width="1" height="1" x="14" y="1" class="d" rx=".25" ry=".25"/><rect width="1" height="1" x="12" y="1" class="d" rx=".25" ry=".25"/><rect width="1" height="1" x="10" y="1" class="d" rx=".25" ry=".25"/><rect width="1" height="1" x="8" y="1" class="d" rx=".25" ry=".25"/><rect width="1" height="1" x="6" y="1" class="d" rx=".25" ry=".25"/><rect width="1" height="1" x="6" y="3" class="d" rx=".25" ry=".25"/><rect width="1" height="1" x="6" y="5" class="d" rx=".25" ry=".25"/><rect width="1" height="1" x="6" y="7" class="d" rx=".25" ry=".25"/><rect width="1" height="1" x="6" y="9" class="d" rx=".25" ry=".25"/><rect width="1" height="1" x="6" y="11" class="d" rx=".25" ry=".25"/><rect width="1" height="1" x="8" y="11" class="d" rx=".25" ry=".25"/><rect width="1" height="1" x="10" y="11" class="d" rx=".25" ry=".25"/><rect width="1" height="1" x="12" y="11" class="d" rx=".25" ry=".25"/><rect width="1" height="1" x="14" y="11" class="d" rx=".25" ry=".25"/><path d="M5,6H1.5c-.28,0-.5,.22-.5,.5v10c0,.28,.22,.5,.5,.5H11.5c.28,0,.5-.22,.5-.5v-3.5H5.5c-.28,0-.5-.22-.5-.5V6Z" class="d"/></svg>