<svg xmlns="http://www.w3.org/2000/svg" id="Layer_1" data-name="Layer 1" viewBox="0 0 498 1150"><defs><style>.cls-1,.cls-12{fill:#e017bf}.cls-1{opacity:.48}.cls-2{fill:#87e2e1;opacity:.16}.cls-3{fill:#e225c3;opacity:.69}.cls-4{fill:#86e1e0;opacity:.26}.cls-5{fill:#cb7254;opacity:.54}.cls-10,.cls-6{fill:#978ad4}.cls-6{opacity:.77}.cls-7{fill:#fab884;opacity:.53}.cls-16,.cls-23,.cls-8{fill:#e9b5e6}.cls-8{opacity:.45}.cls-9{fill:#c25a36}.cls-13,.cls-32,.cls-9{opacity:.66}.cls-10,.cls-16{opacity:.37}.cls-11{fill:#ca7052;opacity:.78}.cls-12{opacity:.2}.cls-13{fill:#eab9e7}.cls-14{fill:#fab47d;opacity:.23}.cls-15,.cls-27{fill:#628dc1}.cls-15{opacity:.46}.cls-17{fill:#fab57e;opacity:.35}.cls-18{fill:#8879ce}.cls-18,.cls-29{opacity:.61}.cls-19{fill:#e223c2;opacity:.12}.cls-20{fill:#f1632c;opacity:.31}.cls-21{fill:#fab681;opacity:.51}.cls-22{fill:#e015be;opacity:.58}.cls-23{opacity:.22}.cls-24{fill:#e8b4e5;opacity:.4}.cls-25{fill:#f6c0f7;opacity:.5}.cls-26{fill:#f7c7f8;opacity:.29}.cls-27{opacity:.57}.cls-28{fill:#fae7da;opacity:.33}.cls-29{fill:#9284d2}.cls-30,.cls-31{fill:#e11abf;opacity:.28}.cls-31{fill:#f05f27}.cls-32{fill:#f05c23}</style></defs><path d="M498,.06q0,610.05-.1,1149.86l-.07,0q.06-540,.09-1149.89Z" class="cls-1"/><path d="M401.29.06q1.59,613.62,3.07,1149.86l-25.49,0Q381.81,613.6,384.63.06Z" class="cls-2"/><path d="M297.59.06q.84,611.46,1.75,1149.92h-6.18q.3-530.79.61-1149.91Z" class="cls-3"/><path d="M287.06.06q.26,619.16.49,1149.86h-3.94q.54-538.05,1-1149.86Z" class="cls-3"/><path d="M265.73.06q.27,610.4.54,1149.86l-3.7,0Q263,610.63,263.48.06Z" class="cls-4"/><path d="M63.67.06q-1.2,609-2.39,1149.86H72Q71,608.33,70,.06Z" class="cls-5"/><path d="M123.5.06c-1.25,322.52-2.5,702.4-3.76,1149.86l30.14.07Q148.64,608.2,147.37.06Z" class="cls-6"/><path d="M118.25.06q1,612.24,2.07,1149.86l-11.44,0Q109.92,619.71,111,.06Z" class="cls-7"/><path d="M84.38.06Q85.19,619.54,86,1149.92H67.27Q69.69,611.24,72.25.06Z" class="cls-7"/><path d="M238.58.06q-1,608-1.91,1149.86h11.15q-1.47-542-2.93-1149.86Z" class="cls-8"/><path d="M197.4.06q4.41,331,8.69,1149.85H176.22Q180.77,330.68,185.29.06Z" class="cls-8"/><path d="M250.28.06q.93,610.41,1.87,1149.86h-7.23q.39-532.34.81-1149.86Z" class="cls-9"/><path d="M238.23.06q.15,617.64.31,1149.86h-2.29q.33-539.07.6-1149.86Z" class="cls-9"/><path d="M394,.06q.29,611.51.59,1149.86h-3.93Q391,611.42,391.37.06Z" class="cls-10"/><path d="M110.56.06q.93,613.8,1.94,1149.86h-8.8q.61-537.1,1.23-1149.86Z" class="cls-10"/><path d="M262.29.06q.87,613.85,1.68,1149.86l-9.55,0Q255.16,613.27,255.86.06Z" class="cls-11"/><path d="M291.3.06q-.76,609.57-1.57,1149.93H298Q297.23,609.42,296.35.06Z" class="cls-12"/><path d="M121.24,0c-.77,350.13-1.55,739.07-2.35,1149.89H137c-.64-410.8-1.33-799.74-2.07-1149.86Z" class="cls-13"/><path d="M408.14.06q.17,610.06.29,1149.86l-2.53,0Q406.25,610,406.56.06Z" class="cls-14"/><path d="M396,.06q-.43,609.36-.93,1149.86l2.94.07q-.14-541-.3-1149.93Z" class="cls-14"/><path d="M246.05.06q.81,611.64,1.59,1149.86l-23.91,0c1.54-399,3-786.75,4.51-1149.84Z" class="cls-15"/><path d="M118.13.06q-1.63,608.69-3.23,1149.86l15.38.08Q128.77,607.66,127.22.06Z" class="cls-16"/><path d="M286,.06q0,610.47-.11,1149.86h.18q0-539.7.05-1149.86Z" class="cls-17"/><path d="M242.29.06q-1.51,608.09-3,1149.86l13.49.07Q251.52,608.52,250.22.06Z" class="cls-18"/><path d="M112.61.06q.49,610.38,1,1149.86l-7.62,0c.42-402.12.83-790.15,1.23-1149.84Z" class="cls-18"/><path d="M137.51.06q-.51,608.47-1,1149.86h7.07q-1-542.12-2-1149.86Z" class="cls-19"/><path d="M15.44.06Q15.28,609.78,15.12,1150l1.44-.07Q16.42,608.78,16.29.06Z" class="cls-19"/><path d="M88.28.06q1,610.88,2.11,1149.86H81.78Q82.32,610.33,82.89.06Z" class="cls-20"/><path d="M158.18.06q0,608.56.09,1149.86l-.55.07q.06-541.6.12-1149.93Z" class="cls-21"/><path d="M24.72.06q-.43,610.17-.85,1149.86H28Q27.7,608.89,27.33.06Z" class="cls-21"/><path d="M89.51.06q1,611.49,2.08,1149.86H82.38Q83,611,83.68.06Z" class="cls-22"/><path d="M36.54.06q1.32,611.61,2.58,1149.86l-10,.06q.49-539.46,1-1149.92Z" class="cls-22"/><path d="M86.18.06q0,609.69.06,1149.86h.28Q86.43,608.65,86.36.06Z" class="cls-23"/><path d="M7.67.06q-1.14,610-2.24,1149.86s-5.43.13-5.43,0Q.8,610.5,1.59.06s5.74-.13,5.74,0q1,611.27,2,1149.86L18,1150Q16.63,608.88,15.26.06Z" class="cls-24"/><path d="M181,.06q-.28,610.91-.56,1149.86H184q-.44-540-.83-1149.86Z" class="cls-25"/><path d="M143.65.06q-.48,608.82-.93,1149.86h4.57Q146.82,607.5,146.37.06Z" class="cls-26"/><path d="M67.59.06Q66.36,609.3,65.22,1149.92L75,1150Q74.24,608.28,73.42.06Z" class="cls-27"/><path d="M64.31.06q-.4,610.2-.79,1149.86h4.31Q67.36,608.84,66.91.06Z" class="cls-28"/><path d="M11.15.06q1.44,610.86,3,1149.86H3.87Q4.26,609.74,4.73.06Z" class="cls-29"/><path d="M77.61.06q2.06,610.79,3.93,1149.86H56Q58.69,610.42,61.42.06Z" class="cls-30"/><path d="M149.94.06q.81,610,1.54,1149.86H142Q143.12,609.45,144.18.06Z" class="cls-31"/><path d="M124,.06q-.61,609.92-1.17,1149.86h6.36Q128.52,609.2,127.91.06Z" class="cls-32"/></svg>